<?xml version="1.0" encoding="utf-8" standalone="no"?>
<!DOCTYPE svg PUBLIC "-//W3C//DTD SVG 1.1//EN"
  "http://www.w3.org/Graphics/SVG/1.1/DTD/svg11.dtd">
<svg xmlns:xlink="http://www.w3.org/1999/xlink" width="911.27952pt" height="407.27952pt" viewBox="0 0 911.27952 407.27952" xmlns="http://www.w3.org/2000/svg" version="1.1">
 <metadata>
  <rdf:RDF xmlns:dc="http://purl.org/dc/elements/1.1/" xmlns:cc="http://creativecommons.org/ns#" xmlns:rdf="http://www.w3.org/1999/02/22-rdf-syntax-ns#">
   <cc:Work>
    <dc:type rdf:resource="http://purl.org/dc/dcmitype/StillImage"/>
    <dc:date>2026-09-08T11:55:57.628386</dc:date>
    <dc:format>image/svg+xml</dc:format>
    <dc:creator>
     <cc:Agent>
      <dc:title>Matplotlib v3.11.1, https://matplotlib.org/</dc:title>
     </cc:Agent>
    </dc:creator>
   </cc:Work>
  </rdf:RDF>
 </metadata>
 <defs>
  <style type="text/css">*{stroke-linejoin: round; stroke-linecap: butt}</style>
 </defs>
 <g id="figure_1">
  <g id="patch_1">
   <path d="M 0 407.27952 
L 911.27952 407.27952 
L 911.27952 0 
L 0 0 
z
" style="fill: #ffffff"/>
  </g>
  <g id="axes_1">
   <g id="patch_2">
    <path d="M 55.711094 367.594989 
L 902.63952 367.594989 
L 902.63952 8.64 
L 55.711094 8.64 
z
" style="fill: #ffffff"/>
   </g>
   <g id="patch_3">
    <path d="M 510.66469 367.594989 
L 655.160699 367.594989 
L 655.160699 8.64 
L 510.66469 8.64 
z
" clip-path="url(#p7949374f28)" style="fill: #dde7ee; opacity: 0.8; stroke: #dde7ee; stroke-linejoin: miter"/>
   </g>
   <g id="matplotlib.axis_1">
    <g id="xtick_1">
     <g id="line2d_1">
      <path d="M 149.424669 367.594989 
L 149.424669 8.64 
" clip-path="url(#p7949374f28)" style="fill: none; stroke: #b0b0b0; stroke-opacity: 0.16; stroke-width: 0.8; stroke-linecap: square"/>
     </g>
     <g id="line2d_2">
      <defs>
       <path id="m550280603c" d="M 0 0 
L 0 3.5 
" style="stroke: #000000; stroke-width: 0.8"/>
      </defs>
      <g>
       <use xlink:href="#m550280603c" x="149.424669" y="367.594989" style="stroke: #000000; stroke-width: 0.8"/>
      </g>
     </g>
     <g id="text_1">
      <text style="font-size: 10px; font-family: 'DejaVu Sans'; text-anchor: middle" x="149.424669" y="382.192645" transform="rotate(-0 149.424669 382.192645)">−6</text>
     </g>
    </g>
    <g id="xtick_2">
     <g id="line2d_3">
      <path d="M 293.920678 367.594989 
L 293.920678 8.64 
" clip-path="url(#p7949374f28)" style="fill: none; stroke: #b0b0b0; stroke-opacity: 0.16; stroke-width: 0.8; stroke-linecap: square"/>
     </g>
     <g id="line2d_4">
      <g>
       <use xlink:href="#m550280603c" x="293.920678" y="367.594989" style="stroke: #000000; stroke-width: 0.8"/>
      </g>
     </g>
     <g id="text_2">
      <text style="font-size: 10px; font-family: 'DejaVu Sans'; text-anchor: middle" x="293.920678" y="382.192645" transform="rotate(-0 293.920678 382.192645)">−4</text>
     </g>
    </g>
    <g id="xtick_3">
     <g id="line2d_5">
      <path d="M 438.416686 367.594989 
L 438.416686 8.64 
" clip-path="url(#p7949374f28)" style="fill: none; stroke: #b0b0b0; stroke-opacity: 0.16; stroke-width: 0.8; stroke-linecap: square"/>
     </g>
     <g id="line2d_6">
      <g>
       <use xlink:href="#m550280603c" x="438.416686" y="367.594989" style="stroke: #000000; stroke-width: 0.8"/>
      </g>
     </g>
     <g id="text_3">
      <text style="font-size: 10px; font-family: 'DejaVu Sans'; text-anchor: middle" x="438.416686" y="382.192645" transform="rotate(-0 438.416686 382.192645)">−2</text>
     </g>
    </g>
    <g id="xtick_4">
     <g id="line2d_7">
      <path d="M 582.912695 367.594989 
L 582.912695 8.64 
" clip-path="url(#p7949374f28)" style="fill: none; stroke: #b0b0b0; stroke-opacity: 0.16; stroke-width: 0.8; stroke-linecap: square"/>
     </g>
     <g id="line2d_8">
      <g>
       <use xlink:href="#m550280603c" x="582.912695" y="367.594989" style="stroke: #000000; stroke-width: 0.8"/>
      </g>
     </g>
     <g id="text_4">
      <text style="font-size: 10px; font-family: 'DejaVu Sans'; text-anchor: middle" x="582.912695" y="382.192645" transform="rotate(-0 582.912695 382.192645)">0</text>
     </g>
    </g>
    <g id="xtick_5">
     <g id="line2d_9">
      <path d="M 727.408703 367.594989 
L 727.408703 8.64 
" clip-path="url(#p7949374f28)" style="fill: none; stroke: #b0b0b0; stroke-opacity: 0.16; stroke-width: 0.8; stroke-linecap: square"/>
     </g>
     <g id="line2d_10">
      <g>
       <use xlink:href="#m550280603c" x="727.408703" y="367.594989" style="stroke: #000000; stroke-width: 0.8"/>
      </g>
     </g>
     <g id="text_5">
      <text style="font-size: 10px; font-family: 'DejaVu Sans'; text-anchor: middle" x="727.408703" y="382.192645" transform="rotate(-0 727.408703 382.192645)">2</text>
     </g>
    </g>
    <g id="xtick_6">
     <g id="line2d_11">
      <path d="M 871.904712 367.594989 
L 871.904712 8.64 
" clip-path="url(#p7949374f28)" style="fill: none; stroke: #b0b0b0; stroke-opacity: 0.16; stroke-width: 0.8; stroke-linecap: square"/>
     </g>
     <g id="line2d_12">
      <g>
       <use xlink:href="#m550280603c" x="871.904712" y="367.594989" style="stroke: #000000; stroke-width: 0.8"/>
      </g>
     </g>
     <g id="text_6">
      <text style="font-size: 10px; font-family: 'DejaVu Sans'; text-anchor: middle" x="871.904712" y="382.192645" transform="rotate(-0 871.904712 382.192645)">4</text>
     </g>
    </g>
    <g id="text_7">
     <text style="font-size: 10px; font-family: 'DejaVu Sans'; text-anchor: middle" x="479.175307" y="396.237176" transform="rotate(-0 479.175307 396.237176)">Prespecified difference (percentage points) | global simultaneous 95% interval</text>
    </g>
   </g>
   <g id="matplotlib.axis_2">
    <g id="ytick_1">
     <g id="line2d_13">
      <path d="M 55.711094 64.510405 
L 902.63952 64.510405 
" clip-path="url(#p7949374f28)" style="fill: none; stroke: #b0b0b0; stroke-opacity: 0.16; stroke-width: 0.8; stroke-linecap: square"/>
     </g>
     <g id="line2d_14">
      <defs>
       <path id="m4b84d85371" d="M 0 0 
L -3.5 0 
" style="stroke: #000000; stroke-width: 0.8"/>
      </defs>
      <g>
       <use xlink:href="#m4b84d85371" x="55.711094" y="64.510405" style="stroke: #000000; stroke-width: 0.8"/>
      </g>
     </g>
     <g id="text_8">
      <text style="font-size: 10px; font-family: 'DejaVu Sans'; text-anchor: end" x="48.711094" y="68.309233" transform="rotate(-0 48.711094 68.309233)">C079</text>
     </g>
    </g>
    <g id="ytick_2">
     <g id="line2d_15">
      <path d="M 55.711094 311.724584 
L 902.63952 311.724584 
" clip-path="url(#p7949374f28)" style="fill: none; stroke: #b0b0b0; stroke-opacity: 0.16; stroke-width: 0.8; stroke-linecap: square"/>
     </g>
     <g id="line2d_16">
      <g>
       <use xlink:href="#m4b84d85371" x="55.711094" y="311.724584" style="stroke: #000000; stroke-width: 0.8"/>
      </g>
     </g>
     <g id="text_9">
      <text style="font-size: 10px; font-family: 'DejaVu Sans'; text-anchor: end" x="48.711094" y="315.523412" transform="rotate(-0 48.711094 315.523412)">C080</text>
     </g>
    </g>
    <g id="text_10">
     <text style="font-size: 10px; font-family: 'DejaVu Sans'; text-anchor: middle" x="16.238438" y="188.117494" transform="rotate(-90 16.238438 188.117494)">Comparison ID: full definition on next page</text>
    </g>
   </g>
   <g id="line2d_17">
    <defs>
     <path id="mb0589a31c5" d="M 0 3 
C 0.795609 3 1.55874 2.683901 2.12132 2.12132 
C 2.683901 1.55874 3 0.795609 3 0 
C 3 -0.795609 2.683901 -1.55874 2.12132 -2.12132 
C 1.55874 -2.683901 0.795609 -3 0 -3 
C -0.795609 -3 -1.55874 -2.683901 -2.12132 -2.12132 
C -2.683901 -1.55874 -3 -0.795609 -3 0 
C -3 0.795609 -2.683901 1.55874 -2.12132 2.12132 
C -1.55874 2.683901 -0.795609 3 0 3 
z
" style="stroke: #c88322"/>
    </defs>
    <g clip-path="url(#p7949374f28)">
     <use xlink:href="#mb0589a31c5" x="656.731091" y="24.956136" style="fill: #c88322; stroke: #c88322"/>
    </g>
   </g>
   <g id="line2d_18">
    <path d="M 496.471365 24.956136 
L 816.990816 24.956136 
" clip-path="url(#p7949374f28)" style="fill: none; stroke: #c88322; stroke-width: 2; stroke-linecap: square"/>
   </g>
   <g id="line2d_19">
    <g clip-path="url(#p7949374f28)">
     <use xlink:href="#mb0589a31c5" x="533.470999" y="272.170315" style="fill: #c88322; stroke: #c88322"/>
    </g>
   </g>
   <g id="line2d_20">
    <path d="M 202.799225 272.170315 
L 864.142773 272.170315 
" clip-path="url(#p7949374f28)" style="fill: none; stroke: #c88322; stroke-width: 2; stroke-linecap: square"/>
   </g>
   <g id="line2d_21">
    <defs>
     <path id="m651b4f1156" d="M 0 3 
C 0.795609 3 1.55874 2.683901 2.12132 2.12132 
C 2.683901 1.55874 3 0.795609 3 0 
C 3 -0.795609 2.683901 -1.55874 2.12132 -2.12132 
C 1.55874 -2.683901 0.795609 -3 0 -3 
C -0.795609 -3 -1.55874 -2.683901 -2.12132 -2.12132 
C -2.683901 -1.55874 -3 -0.795609 -3 0 
C -3 0.795609 -2.683901 1.55874 -2.12132 2.12132 
C -1.55874 2.683901 -0.795609 3 0 3 
z
" style="stroke: #259681"/>
    </defs>
    <g clip-path="url(#p7949374f28)">
     <use xlink:href="#m651b4f1156" x="655.493157" y="104.064673" style="fill: #259681; stroke: #259681"/>
    </g>
   </g>
   <g id="line2d_22">
    <path d="M 503.462098 104.064673 
L 807.524216 104.064673 
" clip-path="url(#p7949374f28)" style="fill: none; stroke: #259681; stroke-width: 2; stroke-linecap: square"/>
   </g>
   <g id="line2d_23">
    <g clip-path="url(#p7949374f28)">
     <use xlink:href="#m651b4f1156" x="412.695863" y="351.278853" style="fill: #259681; stroke: #259681"/>
    </g>
   </g>
   <g id="line2d_24">
    <path d="M 94.20784 351.278853 
L 731.183885 351.278853 
" clip-path="url(#p7949374f28)" style="fill: none; stroke: #259681; stroke-width: 2; stroke-linecap: square"/>
   </g>
   <g id="line2d_25">
    <path d="M 582.912695 367.594989 
L 582.912695 8.64 
" clip-path="url(#p7949374f28)" style="fill: none; stroke: #102c43; stroke-linecap: square"/>
   </g>
   <g id="patch_4">
    <path d="M 55.711094 367.594989 
L 55.711094 8.64 
" style="fill: none; stroke: #000000; stroke-width: 0.8; stroke-linejoin: miter; stroke-linecap: square"/>
   </g>
   <g id="patch_5">
    <path d="M 55.711094 367.594989 
L 902.63952 367.594989 
" style="fill: none; stroke: #000000; stroke-width: 0.8; stroke-linejoin: miter; stroke-linecap: square"/>
   </g>
   <g id="legend_1">
    <g id="patch_6">
     <path d="M 62.711094 46.641562 
L 160.681406 46.641562 
Q 162.681406 46.641562 162.681406 44.641562 
L 162.681406 15.64 
Q 162.681406 13.64 160.681406 13.64 
L 62.711094 13.64 
Q 60.711094 13.64 60.711094 15.64 
L 60.711094 44.641562 
Q 60.711094 46.641562 62.711094 46.641562 
z
" style="fill: #ffffff; opacity: 0.8; stroke: #cccccc; stroke-linejoin: miter"/>
    </g>
    <g id="line2d_26">
     <path d="M 64.711094 21.738437 
L 74.711094 21.738437 
L 84.711094 21.738437 
" style="fill: none; stroke: #c88322; stroke-width: 1.5; stroke-linecap: square"/>
     <g>
      <use xlink:href="#mb0589a31c5" x="74.711094" y="21.738437" style="fill: #c88322; stroke: #c88322"/>
     </g>
    </g>
    <g id="text_11">
     <text style="font-size: 10px; font-family: 'DejaVu Sans'; text-anchor: start" x="92.711094" y="25.238437" transform="rotate(-0 92.711094 25.238437)">development</text>
    </g>
    <g id="line2d_27">
     <path d="M 64.711094 36.739219 
L 74.711094 36.739219 
L 84.711094 36.739219 
" style="fill: none; stroke: #259681; stroke-width: 1.5; stroke-linecap: square"/>
     <g>
      <use xlink:href="#m651b4f1156" x="74.711094" y="36.739219" style="fill: #259681; stroke: #259681"/>
     </g>
    </g>
    <g id="text_12">
     <text style="font-size: 10px; font-family: 'DejaVu Sans'; text-anchor: start" x="92.711094" y="40.239219" transform="rotate(-0 92.711094 40.239219)">test</text>
    </g>
   </g>
  </g>
 </g>
 <defs>
  <clipPath id="p7949374f28">
   <rect x="55.711094" y="8.64" width="846.928426" height="358.954989"/>
  </clipPath>
 </defs>
</svg>
