<?xml version="1.0" encoding="utf-8" standalone="no"?>
<!DOCTYPE svg PUBLIC "-//W3C//DTD SVG 1.1//EN"
  "http://www.w3.org/Graphics/SVG/1.1/DTD/svg11.dtd">
<svg xmlns:xlink="http://www.w3.org/1999/xlink" width="911.27952pt" height="407.27952pt" viewBox="0 0 911.27952 407.27952" xmlns="http://www.w3.org/2000/svg" version="1.1">
 <metadata>
  <rdf:RDF xmlns:dc="http://purl.org/dc/elements/1.1/" xmlns:cc="http://creativecommons.org/ns#" xmlns:rdf="http://www.w3.org/1999/02/22-rdf-syntax-ns#">
   <cc:Work>
    <dc:type rdf:resource="http://purl.org/dc/dcmitype/StillImage"/>
    <dc:date>2026-09-08T11:55:57.236036</dc:date>
    <dc:format>image/svg+xml</dc:format>
    <dc:creator>
     <cc:Agent>
      <dc:title>Matplotlib v3.11.1, https://matplotlib.org/</dc:title>
     </cc:Agent>
    </dc:creator>
   </cc:Work>
  </rdf:RDF>
 </metadata>
 <defs>
  <style type="text/css">*{stroke-linejoin: round; stroke-linecap: butt}</style>
 </defs>
 <g id="figure_1">
  <g id="patch_1">
   <path d="M 0 407.27952 
L 911.27952 407.27952 
L 911.27952 0 
L 0 0 
z
" style="fill: #ffffff"/>
  </g>
  <g id="axes_1">
   <g id="patch_2">
    <path d="M 55.711094 367.594989 
L 902.63952 367.594989 
L 902.63952 8.64 
L 55.711094 8.64 
z
" style="fill: #ffffff"/>
   </g>
   <g id="patch_3">
    <path d="M 636.323164 367.594989 
L 776.253836 367.594989 
L 776.253836 8.64 
L 636.323164 8.64 
z
" clip-path="url(#p2f17a77f61)" style="fill: #dde7ee; opacity: 0.8; stroke: #dde7ee; stroke-linejoin: miter"/>
   </g>
   <g id="matplotlib.axis_1">
    <g id="xtick_1">
     <g id="line2d_1">
      <path d="M 146.565813 367.594989 
L 146.565813 8.64 
" clip-path="url(#p2f17a77f61)" style="fill: none; stroke: #b0b0b0; stroke-opacity: 0.16; stroke-width: 0.8; stroke-linecap: square"/>
     </g>
     <g id="line2d_2">
      <defs>
       <path id="ma58cc53202" d="M 0 0 
L 0 3.5 
" style="stroke: #000000; stroke-width: 0.8"/>
      </defs>
      <g>
       <use xlink:href="#ma58cc53202" x="146.565813" y="367.594989" style="stroke: #000000; stroke-width: 0.8"/>
      </g>
     </g>
     <g id="text_1">
      <text style="font-size: 10px; font-family: 'DejaVu Sans'; text-anchor: middle" x="146.565813" y="382.192645" transform="rotate(-0 146.565813 382.192645)">−8</text>
     </g>
    </g>
    <g id="xtick_2">
     <g id="line2d_3">
      <path d="M 286.496485 367.594989 
L 286.496485 8.64 
" clip-path="url(#p2f17a77f61)" style="fill: none; stroke: #b0b0b0; stroke-opacity: 0.16; stroke-width: 0.8; stroke-linecap: square"/>
     </g>
     <g id="line2d_4">
      <g>
       <use xlink:href="#ma58cc53202" x="286.496485" y="367.594989" style="stroke: #000000; stroke-width: 0.8"/>
      </g>
     </g>
     <g id="text_2">
      <text style="font-size: 10px; font-family: 'DejaVu Sans'; text-anchor: middle" x="286.496485" y="382.192645" transform="rotate(-0 286.496485 382.192645)">−6</text>
     </g>
    </g>
    <g id="xtick_3">
     <g id="line2d_5">
      <path d="M 426.427157 367.594989 
L 426.427157 8.64 
" clip-path="url(#p2f17a77f61)" style="fill: none; stroke: #b0b0b0; stroke-opacity: 0.16; stroke-width: 0.8; stroke-linecap: square"/>
     </g>
     <g id="line2d_6">
      <g>
       <use xlink:href="#ma58cc53202" x="426.427157" y="367.594989" style="stroke: #000000; stroke-width: 0.8"/>
      </g>
     </g>
     <g id="text_3">
      <text style="font-size: 10px; font-family: 'DejaVu Sans'; text-anchor: middle" x="426.427157" y="382.192645" transform="rotate(-0 426.427157 382.192645)">−4</text>
     </g>
    </g>
    <g id="xtick_4">
     <g id="line2d_7">
      <path d="M 566.357828 367.594989 
L 566.357828 8.64 
" clip-path="url(#p2f17a77f61)" style="fill: none; stroke: #b0b0b0; stroke-opacity: 0.16; stroke-width: 0.8; stroke-linecap: square"/>
     </g>
     <g id="line2d_8">
      <g>
       <use xlink:href="#ma58cc53202" x="566.357828" y="367.594989" style="stroke: #000000; stroke-width: 0.8"/>
      </g>
     </g>
     <g id="text_4">
      <text style="font-size: 10px; font-family: 'DejaVu Sans'; text-anchor: middle" x="566.357828" y="382.192645" transform="rotate(-0 566.357828 382.192645)">−2</text>
     </g>
    </g>
    <g id="xtick_5">
     <g id="line2d_9">
      <path d="M 706.2885 367.594989 
L 706.2885 8.64 
" clip-path="url(#p2f17a77f61)" style="fill: none; stroke: #b0b0b0; stroke-opacity: 0.16; stroke-width: 0.8; stroke-linecap: square"/>
     </g>
     <g id="line2d_10">
      <g>
       <use xlink:href="#ma58cc53202" x="706.2885" y="367.594989" style="stroke: #000000; stroke-width: 0.8"/>
      </g>
     </g>
     <g id="text_5">
      <text style="font-size: 10px; font-family: 'DejaVu Sans'; text-anchor: middle" x="706.2885" y="382.192645" transform="rotate(-0 706.2885 382.192645)">0</text>
     </g>
    </g>
    <g id="xtick_6">
     <g id="line2d_11">
      <path d="M 846.219172 367.594989 
L 846.219172 8.64 
" clip-path="url(#p2f17a77f61)" style="fill: none; stroke: #b0b0b0; stroke-opacity: 0.16; stroke-width: 0.8; stroke-linecap: square"/>
     </g>
     <g id="line2d_12">
      <g>
       <use xlink:href="#ma58cc53202" x="846.219172" y="367.594989" style="stroke: #000000; stroke-width: 0.8"/>
      </g>
     </g>
     <g id="text_6">
      <text style="font-size: 10px; font-family: 'DejaVu Sans'; text-anchor: middle" x="846.219172" y="382.192645" transform="rotate(-0 846.219172 382.192645)">2</text>
     </g>
    </g>
    <g id="text_7">
     <text style="font-size: 10px; font-family: 'DejaVu Sans'; text-anchor: middle" x="479.175307" y="396.237176" transform="rotate(-0 479.175307 396.237176)">Prespecified difference (percentage points) | global simultaneous 95% interval</text>
    </g>
   </g>
   <g id="matplotlib.axis_2">
    <g id="ytick_1">
     <g id="line2d_13">
      <path d="M 55.711094 47.461151 
L 902.63952 47.461151 
" clip-path="url(#p2f17a77f61)" style="fill: none; stroke: #b0b0b0; stroke-opacity: 0.16; stroke-width: 0.8; stroke-linecap: square"/>
     </g>
     <g id="line2d_14">
      <defs>
       <path id="m53023064fa" d="M 0 0 
L -3.5 0 
" style="stroke: #000000; stroke-width: 0.8"/>
      </defs>
      <g>
       <use xlink:href="#m53023064fa" x="55.711094" y="47.461151" style="stroke: #000000; stroke-width: 0.8"/>
      </g>
     </g>
     <g id="text_8">
      <text style="font-size: 10px; font-family: 'DejaVu Sans'; text-anchor: end" x="48.711094" y="51.259979" transform="rotate(-0 48.711094 51.259979)">C067</text>
     </g>
    </g>
    <g id="ytick_2">
     <g id="line2d_15">
      <path d="M 55.711094 188.117494 
L 902.63952 188.117494 
" clip-path="url(#p2f17a77f61)" style="fill: none; stroke: #b0b0b0; stroke-opacity: 0.16; stroke-width: 0.8; stroke-linecap: square"/>
     </g>
     <g id="line2d_16">
      <g>
       <use xlink:href="#m53023064fa" x="55.711094" y="188.117494" style="stroke: #000000; stroke-width: 0.8"/>
      </g>
     </g>
     <g id="text_9">
      <text style="font-size: 10px; font-family: 'DejaVu Sans'; text-anchor: end" x="48.711094" y="191.916322" transform="rotate(-0 48.711094 191.916322)">C068</text>
     </g>
    </g>
    <g id="ytick_3">
     <g id="line2d_17">
      <path d="M 55.711094 328.773838 
L 902.63952 328.773838 
" clip-path="url(#p2f17a77f61)" style="fill: none; stroke: #b0b0b0; stroke-opacity: 0.16; stroke-width: 0.8; stroke-linecap: square"/>
     </g>
     <g id="line2d_18">
      <g>
       <use xlink:href="#m53023064fa" x="55.711094" y="328.773838" style="stroke: #000000; stroke-width: 0.8"/>
      </g>
     </g>
     <g id="text_10">
      <text style="font-size: 10px; font-family: 'DejaVu Sans'; text-anchor: end" x="48.711094" y="332.572666" transform="rotate(-0 48.711094 332.572666)">C069</text>
     </g>
    </g>
    <g id="text_11">
     <text style="font-size: 10px; font-family: 'DejaVu Sans'; text-anchor: middle" x="16.238438" y="188.117494" transform="rotate(-90 16.238438 188.117494)">Comparison ID: full definition on next page</text>
    </g>
   </g>
   <g id="line2d_19">
    <defs>
     <path id="ma59f80cc42" d="M 0 3 
C 0.795609 3 1.55874 2.683901 2.12132 2.12132 
C 2.683901 1.55874 3 0.795609 3 0 
C 3 -0.795609 2.683901 -1.55874 2.12132 -2.12132 
C 1.55874 -2.683901 0.795609 -3 0 -3 
C -0.795609 -3 -1.55874 -2.683901 -2.12132 -2.12132 
C -2.683901 -1.55874 -3 -0.795609 -3 0 
C -3 0.795609 -2.683901 1.55874 -2.12132 2.12132 
C -1.55874 2.683901 -0.795609 3 0 3 
z
" style="stroke: #c88322"/>
    </defs>
    <g clip-path="url(#p2f17a77f61)">
     <use xlink:href="#ma59f80cc42" x="503.714098" y="24.956136" style="fill: #c88322; stroke: #c88322"/>
    </g>
   </g>
   <g id="line2d_20">
    <path d="M 242.469481 24.956136 
L 764.958715 24.956136 
" clip-path="url(#p2f17a77f61)" style="fill: none; stroke: #c88322; stroke-width: 2; stroke-linecap: square"/>
   </g>
   <g id="line2d_21">
    <g clip-path="url(#p2f17a77f61)">
     <use xlink:href="#ma59f80cc42" x="412.838959" y="165.612479" style="fill: #c88322; stroke: #c88322"/>
    </g>
   </g>
   <g id="line2d_22">
    <path d="M 94.20784 165.612479 
L 731.470078 165.612479 
" clip-path="url(#p2f17a77f61)" style="fill: none; stroke: #c88322; stroke-width: 2; stroke-linecap: square"/>
   </g>
   <g id="line2d_23">
    <g clip-path="url(#p2f17a77f61)">
     <use xlink:href="#ma59f80cc42" x="522.301889" y="306.268823" style="fill: #c88322; stroke: #c88322"/>
    </g>
   </g>
   <g id="line2d_24">
    <path d="M 281.717614 306.268823 
L 762.886164 306.268823 
" clip-path="url(#p2f17a77f61)" style="fill: none; stroke: #c88322; stroke-width: 2; stroke-linecap: square"/>
   </g>
   <g id="line2d_25">
    <defs>
     <path id="mdb0deb8fdb" d="M 0 3 
C 0.795609 3 1.55874 2.683901 2.12132 2.12132 
C 2.683901 1.55874 3 0.795609 3 0 
C 3 -0.795609 2.683901 -1.55874 2.12132 -2.12132 
C 1.55874 -2.683901 0.795609 -3 0 -3 
C -0.795609 -3 -1.55874 -2.683901 -2.12132 -2.12132 
C -2.683901 -1.55874 -3 -0.795609 -3 0 
C -3 0.795609 -2.683901 1.55874 -2.12132 2.12132 
C -1.55874 2.683901 -0.795609 3 0 3 
z
" style="stroke: #259681"/>
    </defs>
    <g clip-path="url(#p2f17a77f61)">
     <use xlink:href="#mdb0deb8fdb" x="529.029397" y="69.966166" style="fill: #259681; stroke: #259681"/>
    </g>
   </g>
   <g id="line2d_26">
    <path d="M 254.280247 69.966166 
L 803.778548 69.966166 
" clip-path="url(#p2f17a77f61)" style="fill: none; stroke: #259681; stroke-width: 2; stroke-linecap: square"/>
   </g>
   <g id="line2d_27">
    <g clip-path="url(#p2f17a77f61)">
     <use xlink:href="#mdb0deb8fdb" x="530.9623" y="210.622509" style="fill: #259681; stroke: #259681"/>
    </g>
   </g>
   <g id="line2d_28">
    <path d="M 197.781827 210.622509 
L 864.142773 210.622509 
" clip-path="url(#p2f17a77f61)" style="fill: none; stroke: #259681; stroke-width: 2; stroke-linecap: square"/>
   </g>
   <g id="line2d_29">
    <g clip-path="url(#p2f17a77f61)">
     <use xlink:href="#mdb0deb8fdb" x="575.205994" y="351.278853" style="fill: #259681; stroke: #259681"/>
    </g>
   </g>
   <g id="line2d_30">
    <path d="M 339.681633 351.278853 
L 810.730354 351.278853 
" clip-path="url(#p2f17a77f61)" style="fill: none; stroke: #259681; stroke-width: 2; stroke-linecap: square"/>
   </g>
   <g id="line2d_31">
    <path d="M 706.2885 367.594989 
L 706.2885 8.64 
" clip-path="url(#p2f17a77f61)" style="fill: none; stroke: #102c43; stroke-linecap: square"/>
   </g>
   <g id="patch_4">
    <path d="M 55.711094 367.594989 
L 55.711094 8.64 
" style="fill: none; stroke: #000000; stroke-width: 0.8; stroke-linejoin: miter; stroke-linecap: square"/>
   </g>
   <g id="patch_5">
    <path d="M 55.711094 367.594989 
L 902.63952 367.594989 
" style="fill: none; stroke: #000000; stroke-width: 0.8; stroke-linejoin: miter; stroke-linecap: square"/>
   </g>
   <g id="legend_1">
    <g id="patch_6">
     <path d="M 797.669207 46.641562 
L 895.63952 46.641562 
Q 897.63952 46.641562 897.63952 44.641562 
L 897.63952 15.64 
Q 897.63952 13.64 895.63952 13.64 
L 797.669207 13.64 
Q 795.669207 13.64 795.669207 15.64 
L 795.669207 44.641562 
Q 795.669207 46.641562 797.669207 46.641562 
z
" style="fill: #ffffff; opacity: 0.8; stroke: #cccccc; stroke-linejoin: miter"/>
    </g>
    <g id="line2d_32">
     <path d="M 799.669207 21.738437 
L 809.669207 21.738437 
L 819.669207 21.738437 
" style="fill: none; stroke: #c88322; stroke-width: 1.5; stroke-linecap: square"/>
     <g>
      <use xlink:href="#ma59f80cc42" x="809.669207" y="21.738437" style="fill: #c88322; stroke: #c88322"/>
     </g>
    </g>
    <g id="text_12">
     <text style="font-size: 10px; font-family: 'DejaVu Sans'; text-anchor: start" x="827.669207" y="25.238437" transform="rotate(-0 827.669207 25.238437)">development</text>
    </g>
    <g id="line2d_33">
     <path d="M 799.669207 36.739219 
L 809.669207 36.739219 
L 819.669207 36.739219 
" style="fill: none; stroke: #259681; stroke-width: 1.5; stroke-linecap: square"/>
     <g>
      <use xlink:href="#mdb0deb8fdb" x="809.669207" y="36.739219" style="fill: #259681; stroke: #259681"/>
     </g>
    </g>
    <g id="text_13">
     <text style="font-size: 10px; font-family: 'DejaVu Sans'; text-anchor: start" x="827.669207" y="40.239219" transform="rotate(-0 827.669207 40.239219)">test</text>
    </g>
   </g>
  </g>
 </g>
 <defs>
  <clipPath id="p2f17a77f61">
   <rect x="55.711094" y="8.64" width="846.928426" height="358.954989"/>
  </clipPath>
 </defs>
</svg>
