<?xml version="1.0" encoding="utf-8" standalone="no"?>
<!DOCTYPE svg PUBLIC "-//W3C//DTD SVG 1.1//EN"
  "http://www.w3.org/Graphics/SVG/1.1/DTD/svg11.dtd">
<svg xmlns:xlink="http://www.w3.org/1999/xlink" width="1152pt" height="648pt" viewBox="0 0 1152 648" xmlns="http://www.w3.org/2000/svg" version="1.1">
 <metadata>
  <rdf:RDF xmlns:dc="http://purl.org/dc/elements/1.1/" xmlns:cc="http://creativecommons.org/ns#" xmlns:rdf="http://www.w3.org/1999/02/22-rdf-syntax-ns#">
   <cc:Work>
    <dc:type rdf:resource="http://purl.org/dc/dcmitype/StillImage"/>
    <dc:date>2026-09-05T21:43:30.716172</dc:date>
    <dc:format>image/svg+xml</dc:format>
    <dc:creator>
     <cc:Agent>
      <dc:title>Matplotlib v3.10.6, https://matplotlib.org/</dc:title>
     </cc:Agent>
    </dc:creator>
   </cc:Work>
  </rdf:RDF>
 </metadata>
 <defs>
  <style type="text/css">*{stroke-linejoin: round; stroke-linecap: butt}</style>
 </defs>
 <g id="figure_1">
  <g id="patch_1">
   <path d="M 0 648 
L 1152 648 
L 1152 0 
L 0 0 
z
" style="fill: #ffffff"/>
  </g>
  <g id="axes_1">
   <g id="patch_2">
    <path d="M 437.76 524.88 
L 1117.44 524.88 
L 1117.44 110.16 
L 437.76 110.16 
z
" style="fill: #ffffff"/>
   </g>
   <g id="PathCollection_1">
    <defs>
     <path id="mfcb72653af" d="M 0 1.089725 
C 0.288998 1.089725 0.566199 0.974904 0.770552 0.770552 
C 0.974904 0.566199 1.089725 0.288998 1.089725 0 
C 1.089725 -0.288998 0.974904 -0.566199 0.770552 -0.770552 
C 0.566199 -0.974904 0.288998 -1.089725 0 -1.089725 
C -0.288998 -1.089725 -0.566199 -0.974904 -0.770552 -0.770552 
C -0.974904 -0.566199 -1.089725 -0.288998 -1.089725 0 
C -1.089725 0.288998 -0.974904 0.566199 -0.770552 0.770552 
C -0.566199 0.974904 -0.288998 1.089725 0 1.089725 
z
" style="stroke: #53616a"/>
    </defs>
    <g clip-path="url(#p9e1125f1a2)">
     <use xlink:href="#mfcb72653af" x="618.154307" y="129.010909" style="fill: #53616a; stroke: #53616a"/>
    </g>
   </g>
   <g id="PathCollection_2">
    <g clip-path="url(#p9e1125f1a2)">
     <use xlink:href="#mfcb72653af" x="468.654545" y="133.429091" style="fill: #53616a; stroke: #53616a"/>
    </g>
   </g>
   <g id="PathCollection_3">
    <defs>
     <path id="mcbd956233e" d="M 0 -2.179449 
L -2.179449 2.179449 
L 2.179449 2.179449 
z
" style="stroke: #53616a"/>
    </defs>
    <g clip-path="url(#p9e1125f1a2)">
     <use xlink:href="#mcbd956233e" x="544.716751" y="137.847273" style="fill: #53616a; stroke: #53616a"/>
    </g>
   </g>
   <g id="PathCollection_4">
    <defs>
     <path id="m97dab004fa" d="M 0 1.089725 
C 0.288998 1.089725 0.566199 0.974904 0.770552 0.770552 
C 0.974904 0.566199 1.089725 0.288998 1.089725 0 
C 1.089725 -0.288998 0.974904 -0.566199 0.770552 -0.770552 
C 0.566199 -0.974904 0.288998 -1.089725 0 -1.089725 
C -0.288998 -1.089725 -0.566199 -0.974904 -0.770552 -0.770552 
C -0.974904 -0.566199 -1.089725 -0.288998 -1.089725 0 
C -1.089725 0.288998 -0.974904 0.566199 -0.770552 0.770552 
C -0.566199 0.974904 -0.288998 1.089725 0 1.089725 
z
" style="stroke: #5978a6"/>
    </defs>
    <g clip-path="url(#p9e1125f1a2)">
     <use xlink:href="#m97dab004fa" x="618.154307" y="165.829091" style="fill: #5978a6; stroke: #5978a6"/>
    </g>
   </g>
   <g id="PathCollection_5">
    <g clip-path="url(#p9e1125f1a2)">
     <use xlink:href="#m97dab004fa" x="468.654545" y="170.247273" style="fill: #5978a6; stroke: #5978a6"/>
    </g>
   </g>
   <g id="PathCollection_6">
    <defs>
     <path id="m28359fd924" d="M 0 -2.179449 
L -2.179449 2.179449 
L 2.179449 2.179449 
z
" style="stroke: #5978a6"/>
    </defs>
    <g clip-path="url(#p9e1125f1a2)">
     <use xlink:href="#m28359fd924" x="544.716751" y="174.665455" style="fill: #5978a6; stroke: #5978a6"/>
    </g>
   </g>
   <g id="PathCollection_7">
    <g clip-path="url(#p9e1125f1a2)">
     <use xlink:href="#m97dab004fa" x="618.154307" y="202.647273" style="fill: #5978a6; stroke: #5978a6"/>
    </g>
   </g>
   <g id="PathCollection_8">
    <g clip-path="url(#p9e1125f1a2)">
     <use xlink:href="#m97dab004fa" x="468.654545" y="207.065455" style="fill: #5978a6; stroke: #5978a6"/>
    </g>
   </g>
   <g id="PathCollection_9">
    <g clip-path="url(#p9e1125f1a2)">
     <use xlink:href="#m28359fd924" x="544.716751" y="211.483636" style="fill: #5978a6; stroke: #5978a6"/>
    </g>
   </g>
   <g id="PathCollection_10">
    <defs>
     <path id="m5cc6566c12" d="M 0 1.089725 
C 0.288998 1.089725 0.566199 0.974904 0.770552 0.770552 
C 0.974904 0.566199 1.089725 0.288998 1.089725 0 
C 1.089725 -0.288998 0.974904 -0.566199 0.770552 -0.770552 
C 0.566199 -0.974904 0.288998 -1.089725 0 -1.089725 
C -0.288998 -1.089725 -0.566199 -0.974904 -0.770552 -0.770552 
C -0.974904 -0.566199 -1.089725 -0.288998 -1.089725 0 
C -1.089725 0.288998 -0.974904 0.566199 -0.770552 0.770552 
C -0.566199 0.974904 -0.288998 1.089725 0 1.089725 
z
" style="stroke: #8d6a9f"/>
    </defs>
    <g clip-path="url(#p9e1125f1a2)">
     <use xlink:href="#m5cc6566c12" x="618.154307" y="239.465455" style="fill: #8d6a9f; stroke: #8d6a9f"/>
    </g>
   </g>
   <g id="PathCollection_11">
    <g clip-path="url(#p9e1125f1a2)">
     <use xlink:href="#m5cc6566c12" x="468.654545" y="243.883636" style="fill: #8d6a9f; stroke: #8d6a9f"/>
    </g>
   </g>
   <g id="PathCollection_12">
    <defs>
     <path id="m867f0afb73" d="M 0 -2.179449 
L -2.179449 2.179449 
L 2.179449 2.179449 
z
" style="stroke: #8d6a9f"/>
    </defs>
    <g clip-path="url(#p9e1125f1a2)">
     <use xlink:href="#m867f0afb73" x="644.737478" y="248.301818" style="fill: #8d6a9f; stroke: #8d6a9f"/>
    </g>
   </g>
   <g id="PathCollection_13">
    <g clip-path="url(#p9e1125f1a2)">
     <use xlink:href="#m5cc6566c12" x="657.021454" y="276.283636" style="fill: #8d6a9f; stroke: #8d6a9f"/>
    </g>
   </g>
   <g id="PathCollection_14">
    <g clip-path="url(#p9e1125f1a2)">
     <use xlink:href="#m5cc6566c12" x="468.654545" y="280.701818" style="fill: #8d6a9f; stroke: #8d6a9f"/>
    </g>
   </g>
   <g id="PathCollection_15">
    <g clip-path="url(#p9e1125f1a2)">
     <use xlink:href="#m867f0afb73" x="695.564372" y="285.12" style="fill: #8d6a9f; stroke: #8d6a9f"/>
    </g>
   </g>
   <g id="PathCollection_16">
    <defs>
     <path id="mffd6c75853" d="M 0 1.089725 
C 0.288998 1.089725 0.566199 0.974904 0.770552 0.770552 
C 0.974904 0.566199 1.089725 0.288998 1.089725 0 
C 1.089725 -0.288998 0.974904 -0.566199 0.770552 -0.770552 
C 0.566199 -0.974904 0.288998 -1.089725 0 -1.089725 
C -0.288998 -1.089725 -0.566199 -0.974904 -0.770552 -0.770552 
C -0.974904 -0.566199 -1.089725 -0.288998 -1.089725 0 
C -1.089725 0.288998 -0.974904 0.566199 -0.770552 0.770552 
C -0.566199 0.974904 -0.288998 1.089725 0 1.089725 
z
" style="stroke: #007e87"/>
    </defs>
    <g clip-path="url(#p9e1125f1a2)">
     <use xlink:href="#mffd6c75853" x="871.430436" y="313.101818" style="fill: #007e87; stroke: #007e87"/>
    </g>
   </g>
   <g id="PathCollection_17">
    <g clip-path="url(#p9e1125f1a2)">
     <use xlink:href="#mffd6c75853" x="795.301018" y="317.52" style="fill: #007e87; stroke: #007e87"/>
    </g>
   </g>
   <g id="PathCollection_18">
    <defs>
     <path id="maa4c3eab87" d="M 0 -2.179449 
L -2.179449 2.179449 
L 2.179449 2.179449 
z
" style="stroke: #007e87"/>
    </defs>
    <g clip-path="url(#p9e1125f1a2)">
     <use xlink:href="#maa4c3eab87" x="822.025307" y="321.938182" style="fill: #007e87; stroke: #007e87"/>
    </g>
   </g>
   <g id="PathCollection_19">
    <defs>
     <path id="mf5d02e05f2" d="M 0 1.089725 
C 0.288998 1.089725 0.566199 0.974904 0.770552 0.770552 
C 0.974904 0.566199 1.089725 0.288998 1.089725 0 
C 1.089725 -0.288998 0.974904 -0.566199 0.770552 -0.770552 
C 0.566199 -0.974904 0.288998 -1.089725 0 -1.089725 
C -0.288998 -1.089725 -0.566199 -0.974904 -0.770552 -0.770552 
C -0.974904 -0.566199 -1.089725 -0.288998 -1.089725 0 
C -1.089725 0.288998 -0.974904 0.566199 -0.770552 0.770552 
C -0.566199 0.974904 -0.288998 1.089725 0 1.089725 
z
" style="stroke: #a38b4f"/>
    </defs>
    <g clip-path="url(#p9e1125f1a2)">
     <use xlink:href="#mf5d02e05f2" x="618.154307" y="349.92" style="fill: #a38b4f; stroke: #a38b4f"/>
    </g>
   </g>
   <g id="PathCollection_20">
    <g clip-path="url(#p9e1125f1a2)">
     <use xlink:href="#mf5d02e05f2" x="468.654545" y="354.338182" style="fill: #a38b4f; stroke: #a38b4f"/>
    </g>
   </g>
   <g id="PathCollection_21">
    <defs>
     <path id="m3f92f2fdcf" d="M 0 -2.179449 
L -2.179449 2.179449 
L 2.179449 2.179449 
z
" style="stroke: #a38b4f"/>
    </defs>
    <g clip-path="url(#p9e1125f1a2)">
     <use xlink:href="#m3f92f2fdcf" x="645.680915" y="358.756364" style="fill: #a38b4f; stroke: #a38b4f"/>
    </g>
   </g>
   <g id="PathCollection_22">
    <g clip-path="url(#p9e1125f1a2)">
     <use xlink:href="#mffd6c75853" x="1050.689318" y="386.738182" style="fill: #007e87; stroke: #007e87"/>
    </g>
   </g>
   <g id="PathCollection_23">
    <g clip-path="url(#p9e1125f1a2)">
     <use xlink:href="#mffd6c75853" x="831.486469" y="391.156364" style="fill: #007e87; stroke: #007e87"/>
    </g>
   </g>
   <g id="PathCollection_24">
    <g clip-path="url(#p9e1125f1a2)">
     <use xlink:href="#maa4c3eab87" x="748.920654" y="395.574545" style="fill: #007e87; stroke: #007e87"/>
    </g>
   </g>
   <g id="PathCollection_25">
    <g clip-path="url(#p9e1125f1a2)">
     <use xlink:href="#mf5d02e05f2" x="934.249168" y="423.556364" style="fill: #a38b4f; stroke: #a38b4f"/>
    </g>
   </g>
   <g id="PathCollection_26">
    <g clip-path="url(#p9e1125f1a2)">
     <use xlink:href="#mf5d02e05f2" x="637.484962" y="427.974545" style="fill: #a38b4f; stroke: #a38b4f"/>
    </g>
   </g>
   <g id="PathCollection_27">
    <g clip-path="url(#p9e1125f1a2)">
     <use xlink:href="#m3f92f2fdcf" x="733.082228" y="432.392727" style="fill: #a38b4f; stroke: #a38b4f"/>
    </g>
   </g>
   <g id="PathCollection_28">
    <g clip-path="url(#p9e1125f1a2)">
     <use xlink:href="#mffd6c75853" x="1011.77336" y="460.374545" style="fill: #007e87; stroke: #007e87"/>
    </g>
   </g>
   <g id="PathCollection_29">
    <g clip-path="url(#p9e1125f1a2)">
     <use xlink:href="#mffd6c75853" x="860.233312" y="464.792727" style="fill: #007e87; stroke: #007e87"/>
    </g>
   </g>
   <g id="PathCollection_30">
    <g clip-path="url(#p9e1125f1a2)">
     <use xlink:href="#maa4c3eab87" x="730.986269" y="469.210909" style="fill: #007e87; stroke: #007e87"/>
    </g>
   </g>
   <g id="PathCollection_31">
    <g clip-path="url(#p9e1125f1a2)">
     <use xlink:href="#mf5d02e05f2" x="1086.545455" y="497.192727" style="fill: #a38b4f; stroke: #a38b4f"/>
    </g>
   </g>
   <g id="PathCollection_32">
    <g clip-path="url(#p9e1125f1a2)">
     <use xlink:href="#mf5d02e05f2" x="797.04224" y="501.610909" style="fill: #a38b4f; stroke: #a38b4f"/>
    </g>
   </g>
   <g id="PathCollection_33">
    <g clip-path="url(#p9e1125f1a2)">
     <use xlink:href="#m3f92f2fdcf" x="746.947616" y="506.029091" style="fill: #a38b4f; stroke: #a38b4f"/>
    </g>
   </g>
   <g id="matplotlib.axis_1">
    <g id="xtick_1">
     <g id="line2d_1">
      <path d="M 467.336164 524.88 
L 467.336164 110.16 
" clip-path="url(#p9e1125f1a2)" style="fill: none; stroke: #b0b0b0; stroke-opacity: 0.2; stroke-width: 0.8; stroke-linecap: square"/>
     </g>
     <g id="line2d_2">
      <defs>
       <path id="m385223085e" d="M 0 0 
L 0 3.5 
" style="stroke: #000000; stroke-width: 0.8"/>
      </defs>
      <g>
       <use xlink:href="#m385223085e" x="467.336164" y="524.88" style="stroke: #000000; stroke-width: 0.8"/>
      </g>
     </g>
     <g id="text_1">
      <text style="font-size: 10px; font-family: 'DejaVu Sans'; text-anchor: middle" x="467.336164" y="539.478437" transform="rotate(-0 467.336164 539.478437)">64</text>
     </g>
    </g>
    <g id="xtick_2">
     <g id="line2d_3">
      <path d="M 617.186506 524.88 
L 617.186506 110.16 
" clip-path="url(#p9e1125f1a2)" style="fill: none; stroke: #b0b0b0; stroke-opacity: 0.2; stroke-width: 0.8; stroke-linecap: square"/>
     </g>
     <g id="line2d_4">
      <g>
       <use xlink:href="#m385223085e" x="617.186506" y="524.88" style="stroke: #000000; stroke-width: 0.8"/>
      </g>
     </g>
     <g id="text_2">
      <text style="font-size: 10px; font-family: 'DejaVu Sans'; text-anchor: middle" x="617.186506" y="539.478437" transform="rotate(-0 617.186506 539.478437)">66</text>
     </g>
    </g>
    <g id="xtick_3">
     <g id="line2d_5">
      <path d="M 767.036849 524.88 
L 767.036849 110.16 
" clip-path="url(#p9e1125f1a2)" style="fill: none; stroke: #b0b0b0; stroke-opacity: 0.2; stroke-width: 0.8; stroke-linecap: square"/>
     </g>
     <g id="line2d_6">
      <g>
       <use xlink:href="#m385223085e" x="767.036849" y="524.88" style="stroke: #000000; stroke-width: 0.8"/>
      </g>
     </g>
     <g id="text_3">
      <text style="font-size: 10px; font-family: 'DejaVu Sans'; text-anchor: middle" x="767.036849" y="539.478437" transform="rotate(-0 767.036849 539.478437)">68</text>
     </g>
    </g>
    <g id="xtick_4">
     <g id="line2d_7">
      <path d="M 916.887191 524.88 
L 916.887191 110.16 
" clip-path="url(#p9e1125f1a2)" style="fill: none; stroke: #b0b0b0; stroke-opacity: 0.2; stroke-width: 0.8; stroke-linecap: square"/>
     </g>
     <g id="line2d_8">
      <g>
       <use xlink:href="#m385223085e" x="916.887191" y="524.88" style="stroke: #000000; stroke-width: 0.8"/>
      </g>
     </g>
     <g id="text_4">
      <text style="font-size: 10px; font-family: 'DejaVu Sans'; text-anchor: middle" x="916.887191" y="539.478437" transform="rotate(-0 916.887191 539.478437)">70</text>
     </g>
    </g>
    <g id="xtick_5">
     <g id="line2d_9">
      <path d="M 1066.737534 524.88 
L 1066.737534 110.16 
" clip-path="url(#p9e1125f1a2)" style="fill: none; stroke: #b0b0b0; stroke-opacity: 0.2; stroke-width: 0.8; stroke-linecap: square"/>
     </g>
     <g id="line2d_10">
      <g>
       <use xlink:href="#m385223085e" x="1066.737534" y="524.88" style="stroke: #000000; stroke-width: 0.8"/>
      </g>
     </g>
     <g id="text_5">
      <text style="font-size: 10px; font-family: 'DejaVu Sans'; text-anchor: middle" x="1066.737534" y="539.478437" transform="rotate(-0 1066.737534 539.478437)">72</text>
     </g>
    </g>
    <g id="text_6">
     <text style="font-size: 10px; font-family: 'DejaVu Sans'; text-anchor: middle" x="777.6" y="553.156562" transform="rotate(-0 777.6 553.156562)">Macro-F1 (%)</text>
    </g>
   </g>
   <g id="matplotlib.axis_2">
    <g id="ytick_1">
     <g id="line2d_11">
      <defs>
       <path id="m1669432c8b" d="M 0 0 
L -3.5 0 
" style="stroke: #000000; stroke-width: 0.8"/>
      </defs>
      <g>
       <use xlink:href="#m1669432c8b" x="437.76" y="133.429091" style="stroke: #000000; stroke-width: 0.8"/>
      </g>
     </g>
     <g id="text_7">
      <text style="font-size: 10px; font-family: 'DejaVu Sans'; text-anchor: end" x="430.76" y="137.22831" transform="rotate(-0 430.76 137.22831)">No bridge</text>
     </g>
    </g>
    <g id="ytick_2">
     <g id="line2d_12">
      <g>
       <use xlink:href="#m1669432c8b" x="437.76" y="170.247273" style="stroke: #000000; stroke-width: 0.8"/>
      </g>
     </g>
     <g id="text_8">
      <text style="font-size: 10px; font-family: 'DejaVu Sans'; text-anchor: end" x="430.76" y="174.046491" transform="rotate(-0 430.76 174.046491)">MMTM / ratio 4, hidden 256</text>
     </g>
    </g>
    <g id="ytick_3">
     <g id="line2d_13">
      <g>
       <use xlink:href="#m1669432c8b" x="437.76" y="207.065455" style="stroke: #000000; stroke-width: 0.8"/>
      </g>
     </g>
     <g id="text_9">
      <text style="font-size: 10px; font-family: 'DejaVu Sans'; text-anchor: end" x="430.76" y="210.864673" transform="rotate(-0 430.76 210.864673)">MMTM / ratio 8, hidden 128</text>
     </g>
    </g>
    <g id="ytick_4">
     <g id="line2d_14">
      <g>
       <use xlink:href="#m1669432c8b" x="437.76" y="243.883636" style="stroke: #000000; stroke-width: 0.8"/>
      </g>
     </g>
     <g id="text_10">
      <text style="font-size: 10px; font-family: 'DejaVu Sans'; text-anchor: end" x="430.76" y="247.682855" transform="rotate(-0 430.76 247.682855)">Cross-attention / d128, 4 heads</text>
     </g>
    </g>
    <g id="ytick_5">
     <g id="line2d_15">
      <g>
       <use xlink:href="#m1669432c8b" x="437.76" y="280.701818" style="stroke: #000000; stroke-width: 0.8"/>
      </g>
     </g>
     <g id="text_11">
      <text style="font-size: 10px; font-family: 'DejaVu Sans'; text-anchor: end" x="430.76" y="284.501037" transform="rotate(-0 430.76 284.501037)">Cross-attention / d256, 4 heads</text>
     </g>
    </g>
    <g id="ytick_6">
     <g id="line2d_16">
      <g>
       <use xlink:href="#m1669432c8b" x="437.76" y="317.52" style="stroke: #000000; stroke-width: 0.8"/>
      </g>
     </g>
     <g id="text_12">
      <text style="font-size: 10px; font-family: 'DejaVu Sans'; text-anchor: end" x="430.76" y="321.341094" transform="rotate(-0 430.76 321.341094)">SVD / Radon | rho=1/16</text>
     </g>
    </g>
    <g id="ytick_7">
     <g id="line2d_17">
      <g>
       <use xlink:href="#m1669432c8b" x="437.76" y="354.338182" style="stroke: #000000; stroke-width: 0.8"/>
      </g>
     </g>
     <g id="text_13">
      <text style="font-size: 10px; font-family: 'DejaVu Sans'; text-anchor: end" x="430.76" y="358.159276" transform="rotate(-0 430.76 358.159276)">Random QR / Radon | rho=1/16</text>
     </g>
    </g>
    <g id="ytick_8">
     <g id="line2d_18">
      <g>
       <use xlink:href="#m1669432c8b" x="437.76" y="391.156364" style="stroke: #000000; stroke-width: 0.8"/>
      </g>
     </g>
     <g id="text_14">
      <text style="font-size: 10px; font-family: 'DejaVu Sans'; text-anchor: end" x="430.76" y="394.977457" transform="rotate(-0 430.76 394.977457)">SVD / Radon | rho=1/8</text>
     </g>
    </g>
    <g id="ytick_9">
     <g id="line2d_19">
      <g>
       <use xlink:href="#m1669432c8b" x="437.76" y="427.974545" style="stroke: #000000; stroke-width: 0.8"/>
      </g>
     </g>
     <g id="text_15">
      <text style="font-size: 10px; font-family: 'DejaVu Sans'; text-anchor: end" x="430.76" y="431.795639" transform="rotate(-0 430.76 431.795639)">Random QR / Radon | rho=1/8</text>
     </g>
    </g>
    <g id="ytick_10">
     <g id="line2d_20">
      <g>
       <use xlink:href="#m1669432c8b" x="437.76" y="464.792727" style="stroke: #000000; stroke-width: 0.8"/>
      </g>
     </g>
     <g id="text_16">
      <text style="font-size: 10px; font-family: 'DejaVu Sans'; text-anchor: end" x="430.76" y="468.613821" transform="rotate(-0 430.76 468.613821)">SVD / Radon | rho=1/4</text>
     </g>
    </g>
    <g id="ytick_11">
     <g id="line2d_21">
      <g>
       <use xlink:href="#m1669432c8b" x="437.76" y="501.610909" style="stroke: #000000; stroke-width: 0.8"/>
      </g>
     </g>
     <g id="text_17">
      <text style="font-size: 10px; font-family: 'DejaVu Sans'; text-anchor: end" x="430.76" y="505.432003" transform="rotate(-0 430.76 505.432003)">Random QR / Radon | rho=1/4</text>
     </g>
    </g>
   </g>
   <g id="LineCollection_1">
    <path d="M 469.088147 133.429091 
L 618.595588 133.429091 
" clip-path="url(#p9e1125f1a2)" style="fill: none; stroke: #53616a; stroke-width: 1.5"/>
   </g>
   <g id="line2d_22">
    <defs>
     <path id="m90bdf12288" d="M 0 3 
L 0 -3 
" style="stroke: #53616a"/>
    </defs>
    <g clip-path="url(#p9e1125f1a2)">
     <use xlink:href="#m90bdf12288" x="469.088147" y="133.429091" style="fill: #53616a; stroke: #53616a"/>
    </g>
   </g>
   <g id="line2d_23">
    <g clip-path="url(#p9e1125f1a2)">
     <use xlink:href="#m90bdf12288" x="618.595588" y="133.429091" style="fill: #53616a; stroke: #53616a"/>
    </g>
   </g>
   <g id="LineCollection_2">
    <path d="M 469.088147 170.247273 
L 618.595588 170.247273 
" clip-path="url(#p9e1125f1a2)" style="fill: none; stroke: #5978a6; stroke-width: 1.5"/>
   </g>
   <g id="line2d_24">
    <defs>
     <path id="m0a85d06de6" d="M 0 3 
L 0 -3 
" style="stroke: #5978a6"/>
    </defs>
    <g clip-path="url(#p9e1125f1a2)">
     <use xlink:href="#m0a85d06de6" x="469.088147" y="170.247273" style="fill: #5978a6; stroke: #5978a6"/>
    </g>
   </g>
   <g id="line2d_25">
    <g clip-path="url(#p9e1125f1a2)">
     <use xlink:href="#m0a85d06de6" x="618.595588" y="170.247273" style="fill: #5978a6; stroke: #5978a6"/>
    </g>
   </g>
   <g id="LineCollection_3">
    <path d="M 469.088147 207.065455 
L 618.595588 207.065455 
" clip-path="url(#p9e1125f1a2)" style="fill: none; stroke: #5978a6; stroke-width: 1.5"/>
   </g>
   <g id="line2d_26">
    <g clip-path="url(#p9e1125f1a2)">
     <use xlink:href="#m0a85d06de6" x="469.088147" y="207.065455" style="fill: #5978a6; stroke: #5978a6"/>
    </g>
   </g>
   <g id="line2d_27">
    <g clip-path="url(#p9e1125f1a2)">
     <use xlink:href="#m0a85d06de6" x="618.595588" y="207.065455" style="fill: #5978a6; stroke: #5978a6"/>
    </g>
   </g>
   <g id="LineCollection_4">
    <path d="M 482.259297 243.883636 
L 672.104923 243.883636 
" clip-path="url(#p9e1125f1a2)" style="fill: none; stroke: #8d6a9f; stroke-width: 1.5"/>
   </g>
   <g id="line2d_28">
    <defs>
     <path id="me0f2b57e98" d="M 0 3 
L 0 -3 
" style="stroke: #8d6a9f"/>
    </defs>
    <g clip-path="url(#p9e1125f1a2)">
     <use xlink:href="#me0f2b57e98" x="482.259297" y="243.883636" style="fill: #8d6a9f; stroke: #8d6a9f"/>
    </g>
   </g>
   <g id="line2d_29">
    <g clip-path="url(#p9e1125f1a2)">
     <use xlink:href="#me0f2b57e98" x="672.104923" y="243.883636" style="fill: #8d6a9f; stroke: #8d6a9f"/>
    </g>
   </g>
   <g id="LineCollection_5">
    <path d="M 485.660934 280.701818 
L 728.499313 280.701818 
" clip-path="url(#p9e1125f1a2)" style="fill: none; stroke: #8d6a9f; stroke-width: 1.5"/>
   </g>
   <g id="line2d_30">
    <g clip-path="url(#p9e1125f1a2)">
     <use xlink:href="#me0f2b57e98" x="485.660934" y="280.701818" style="fill: #8d6a9f; stroke: #8d6a9f"/>
    </g>
   </g>
   <g id="line2d_31">
    <g clip-path="url(#p9e1125f1a2)">
     <use xlink:href="#me0f2b57e98" x="728.499313" y="280.701818" style="fill: #8d6a9f; stroke: #8d6a9f"/>
    </g>
   </g>
   <g id="LineCollection_6">
    <path d="M 790.961884 317.52 
L 868.20929 317.52 
" clip-path="url(#p9e1125f1a2)" style="fill: none; stroke: #007e87; stroke-width: 1.5"/>
   </g>
   <g id="line2d_32">
    <defs>
     <path id="m33caddbc50" d="M 0 3 
L 0 -3 
" style="stroke: #007e87"/>
    </defs>
    <g clip-path="url(#p9e1125f1a2)">
     <use xlink:href="#m33caddbc50" x="790.961884" y="317.52" style="fill: #007e87; stroke: #007e87"/>
    </g>
   </g>
   <g id="line2d_33">
    <g clip-path="url(#p9e1125f1a2)">
     <use xlink:href="#m33caddbc50" x="868.20929" y="317.52" style="fill: #007e87; stroke: #007e87"/>
    </g>
   </g>
   <g id="LineCollection_7">
    <path d="M 482.237094 354.338182 
L 672.756084 354.338182 
" clip-path="url(#p9e1125f1a2)" style="fill: none; stroke: #a38b4f; stroke-width: 1.5"/>
   </g>
   <g id="line2d_34">
    <defs>
     <path id="md6c56b12b7" d="M 0 3 
L 0 -3 
" style="stroke: #a38b4f"/>
    </defs>
    <g clip-path="url(#p9e1125f1a2)">
     <use xlink:href="#md6c56b12b7" x="482.237094" y="354.338182" style="fill: #a38b4f; stroke: #a38b4f"/>
    </g>
   </g>
   <g id="line2d_35">
    <g clip-path="url(#p9e1125f1a2)">
     <use xlink:href="#md6c56b12b7" x="672.756084" y="354.338182" style="fill: #a38b4f; stroke: #a38b4f"/>
    </g>
   </g>
   <g id="LineCollection_8">
    <path d="M 721.077384 391.156364 
L 1032.986911 391.156364 
" clip-path="url(#p9e1125f1a2)" style="fill: none; stroke: #007e87; stroke-width: 1.5"/>
   </g>
   <g id="line2d_36">
    <g clip-path="url(#p9e1125f1a2)">
     <use xlink:href="#m33caddbc50" x="721.077384" y="391.156364" style="fill: #007e87; stroke: #007e87"/>
    </g>
   </g>
   <g id="line2d_37">
    <g clip-path="url(#p9e1125f1a2)">
     <use xlink:href="#m33caddbc50" x="1032.986911" y="391.156364" style="fill: #007e87; stroke: #007e87"/>
    </g>
   </g>
   <g id="LineCollection_9">
    <path d="M 616.792765 427.974545 
L 919.751474 427.974545 
" clip-path="url(#p9e1125f1a2)" style="fill: none; stroke: #a38b4f; stroke-width: 1.5"/>
   </g>
   <g id="line2d_38">
    <g clip-path="url(#p9e1125f1a2)">
     <use xlink:href="#md6c56b12b7" x="616.792765" y="427.974545" style="fill: #a38b4f; stroke: #a38b4f"/>
    </g>
   </g>
   <g id="line2d_39">
    <g clip-path="url(#p9e1125f1a2)">
     <use xlink:href="#md6c56b12b7" x="919.751474" y="427.974545" style="fill: #a38b4f; stroke: #a38b4f"/>
    </g>
   </g>
   <g id="LineCollection_10">
    <path d="M 727.12335 464.792727 
L 1008.205277 464.792727 
" clip-path="url(#p9e1125f1a2)" style="fill: none; stroke: #007e87; stroke-width: 1.5"/>
   </g>
   <g id="line2d_40">
    <g clip-path="url(#p9e1125f1a2)">
     <use xlink:href="#m33caddbc50" x="727.12335" y="464.792727" style="fill: #007e87; stroke: #007e87"/>
    </g>
   </g>
   <g id="line2d_41">
    <g clip-path="url(#p9e1125f1a2)">
     <use xlink:href="#m33caddbc50" x="1008.205277" y="464.792727" style="fill: #007e87; stroke: #007e87"/>
    </g>
   </g>
   <g id="LineCollection_11">
    <path d="M 693.52013 501.610909 
L 1060.170077 501.610909 
" clip-path="url(#p9e1125f1a2)" style="fill: none; stroke: #a38b4f; stroke-width: 1.5"/>
   </g>
   <g id="line2d_42">
    <g clip-path="url(#p9e1125f1a2)">
     <use xlink:href="#md6c56b12b7" x="693.52013" y="501.610909" style="fill: #a38b4f; stroke: #a38b4f"/>
    </g>
   </g>
   <g id="line2d_43">
    <g clip-path="url(#p9e1125f1a2)">
     <use xlink:href="#md6c56b12b7" x="1060.170077" y="501.610909" style="fill: #a38b4f; stroke: #a38b4f"/>
    </g>
   </g>
   <g id="line2d_44">
    <defs>
     <path id="m0d10f37fe2" d="M 0 3 
C 0.795609 3 1.55874 2.683901 2.12132 2.12132 
C 2.683901 1.55874 3 0.795609 3 0 
C 3 -0.795609 2.683901 -1.55874 2.12132 -2.12132 
C 1.55874 -2.683901 0.795609 -3 0 -3 
C -0.795609 -3 -1.55874 -2.683901 -2.12132 -2.12132 
C -2.683901 -1.55874 -3 -0.795609 -3 0 
C -3 0.795609 -2.683901 1.55874 -2.12132 2.12132 
C -1.55874 2.683901 -0.795609 3 0 3 
z
" style="stroke: #53616a"/>
    </defs>
    <g clip-path="url(#p9e1125f1a2)">
     <use xlink:href="#m0d10f37fe2" x="543.841868" y="133.429091" style="fill: #53616a; stroke: #53616a"/>
    </g>
   </g>
   <g id="line2d_45">
    <defs>
     <path id="m5260456527" d="M 0 3 
C 0.795609 3 1.55874 2.683901 2.12132 2.12132 
C 2.683901 1.55874 3 0.795609 3 0 
C 3 -0.795609 2.683901 -1.55874 2.12132 -2.12132 
C 1.55874 -2.683901 0.795609 -3 0 -3 
C -0.795609 -3 -1.55874 -2.683901 -2.12132 -2.12132 
C -2.683901 -1.55874 -3 -0.795609 -3 0 
C -3 0.795609 -2.683901 1.55874 -2.12132 2.12132 
C -1.55874 2.683901 -0.795609 3 0 3 
z
" style="stroke: #5978a6"/>
    </defs>
    <g clip-path="url(#p9e1125f1a2)">
     <use xlink:href="#m5260456527" x="543.841868" y="170.247273" style="fill: #5978a6; stroke: #5978a6"/>
    </g>
   </g>
   <g id="line2d_46">
    <g clip-path="url(#p9e1125f1a2)">
     <use xlink:href="#m5260456527" x="543.841868" y="207.065455" style="fill: #5978a6; stroke: #5978a6"/>
    </g>
   </g>
   <g id="line2d_47">
    <defs>
     <path id="mdb4de1c096" d="M 0 3 
C 0.795609 3 1.55874 2.683901 2.12132 2.12132 
C 2.683901 1.55874 3 0.795609 3 0 
C 3 -0.795609 2.683901 -1.55874 2.12132 -2.12132 
C 1.55874 -2.683901 0.795609 -3 0 -3 
C -0.795609 -3 -1.55874 -2.683901 -2.12132 -2.12132 
C -2.683901 -1.55874 -3 -0.795609 -3 0 
C -3 0.795609 -2.683901 1.55874 -2.12132 2.12132 
C -1.55874 2.683901 -0.795609 3 0 3 
z
" style="stroke: #8d6a9f"/>
    </defs>
    <g clip-path="url(#p9e1125f1a2)">
     <use xlink:href="#mdb4de1c096" x="577.18211" y="243.883636" style="fill: #8d6a9f; stroke: #8d6a9f"/>
    </g>
   </g>
   <g id="line2d_48">
    <g clip-path="url(#p9e1125f1a2)">
     <use xlink:href="#mdb4de1c096" x="607.080124" y="280.701818" style="fill: #8d6a9f; stroke: #8d6a9f"/>
    </g>
   </g>
   <g id="line2d_49">
    <defs>
     <path id="md83faa6495" d="M 0 3 
C 0.795609 3 1.55874 2.683901 2.12132 2.12132 
C 2.683901 1.55874 3 0.795609 3 0 
C 3 -0.795609 2.683901 -1.55874 2.12132 -2.12132 
C 1.55874 -2.683901 0.795609 -3 0 -3 
C -0.795609 -3 -1.55874 -2.683901 -2.12132 -2.12132 
C -2.683901 -1.55874 -3 -0.795609 -3 0 
C -3 0.795609 -2.683901 1.55874 -2.12132 2.12132 
C -1.55874 2.683901 -0.795609 3 0 3 
z
" style="stroke: #007e87"/>
    </defs>
    <g clip-path="url(#p9e1125f1a2)">
     <use xlink:href="#md83faa6495" x="829.585587" y="317.52" style="fill: #007e87; stroke: #007e87"/>
    </g>
   </g>
   <g id="line2d_50">
    <defs>
     <path id="m76b079d547" d="M 0 3 
C 0.795609 3 1.55874 2.683901 2.12132 2.12132 
C 2.683901 1.55874 3 0.795609 3 0 
C 3 -0.795609 2.683901 -1.55874 2.12132 -2.12132 
C 1.55874 -2.683901 0.795609 -3 0 -3 
C -0.795609 -3 -1.55874 -2.683901 -2.12132 -2.12132 
C -2.683901 -1.55874 -3 -0.795609 -3 0 
C -3 0.795609 -2.683901 1.55874 -2.12132 2.12132 
C -1.55874 2.683901 -0.795609 3 0 3 
z
" style="stroke: #a38b4f"/>
    </defs>
    <g clip-path="url(#p9e1125f1a2)">
     <use xlink:href="#m76b079d547" x="577.496589" y="354.338182" style="fill: #a38b4f; stroke: #a38b4f"/>
    </g>
   </g>
   <g id="line2d_51">
    <g clip-path="url(#p9e1125f1a2)">
     <use xlink:href="#md83faa6495" x="877.032147" y="391.156364" style="fill: #007e87; stroke: #007e87"/>
    </g>
   </g>
   <g id="line2d_52">
    <g clip-path="url(#p9e1125f1a2)">
     <use xlink:href="#m76b079d547" x="768.272119" y="427.974545" style="fill: #a38b4f; stroke: #a38b4f"/>
    </g>
   </g>
   <g id="line2d_53">
    <g clip-path="url(#p9e1125f1a2)">
     <use xlink:href="#md83faa6495" x="867.664314" y="464.792727" style="fill: #007e87; stroke: #007e87"/>
    </g>
   </g>
   <g id="line2d_54">
    <g clip-path="url(#p9e1125f1a2)">
     <use xlink:href="#m76b079d547" x="876.845103" y="501.610909" style="fill: #a38b4f; stroke: #a38b4f"/>
    </g>
   </g>
   <g id="patch_3">
    <path d="M 437.76 524.88 
L 437.76 110.16 
" style="fill: none; stroke: #000000; stroke-width: 0.8; stroke-linejoin: miter; stroke-linecap: square"/>
   </g>
   <g id="patch_4">
    <path d="M 437.76 524.88 
L 1117.44 524.88 
" style="fill: none; stroke: #000000; stroke-width: 0.8; stroke-linejoin: miter; stroke-linecap: square"/>
   </g>
   <g id="text_18">
    <text style="font-size: 12px; font-family: 'DejaVu Sans'; text-anchor: middle" x="777.6" y="104.16" transform="rotate(-0 777.6 104.16)">MEAN</text>
   </g>
  </g>
  <g id="text_19">
   <text style="font-weight: 700; font-size: 18px; font-family: 'DejaVu Sans'; text-anchor: start" x="57.6" y="26.715937" transform="rotate(-0 57.6 26.715937)">R&amp;B (Radon Bridge) | Common communication methods: MEAN</text>
  </g>
  <g id="text_20">
   <text style="font-size: 9px; font-family: 'DejaVu Sans'; text-anchor: start; fill: #53616a" x="57.6" y="631.8" transform="rotate(-0 57.6 631.8)">Mean +/- sample SD over three seeds. Points show individual seeds; triangles mark 3418. Parameters and search histories differ.</text>
  </g>
 </g>
 <defs>
  <clipPath id="p9e1125f1a2">
   <rect x="437.76" y="110.16" width="679.68" height="414.72"/>
  </clipPath>
 </defs>
</svg>
